<svg width="65" height="65" viewBox="0 0 65 65" fill="none" xmlns="http://www.w3.org/2000/svg">
<path d="M16.7139 34.5972H13.8438C13.0908 34.5972 12.4111 35.0454 12.1133 35.7358L4.16797 54.2363L23.0371 44.5991C20.7783 41.4736 18.5435 38.0264 16.7139 34.5972Z" fill="#188B22"/>
<path d="M53.2192 35.7358C52.9219 35.0454 52.2417 34.5972 51.4893 34.5972H48.6191C45.1641 41.0718 40.1304 47.7627 36.9282 51.4438C34.6763 54.0269 30.6538 54.0239 28.4053 51.4438C28.1753 51.1797 26.9746 49.7896 25.3208 47.6519L21.9189 49.3901L34.7871 62.2334L59.1699 49.5928L53.2192 35.7358Z" fill="#188B22"/>
<path d="M1.84667 59.6431L0.820306 62.0332C0.289056 63.27 1.19921 64.6514 2.55029 64.6514H30.1816C30.3545 64.523 30.3564 64.5308 31.2842 64.0498L18.397 51.1895L1.84667 59.6431Z" fill="#188B22"/>
<path d="M64.5127 62.0332L60.6572 53.0557L38.29 64.6514H62.7827C64.1309 64.6514 65.0449 63.2725 64.5127 62.0332Z" fill="#188B22"/>
<path d="M34.5488 17.5669C34.5488 16.5308 33.7041 15.6885 32.6665 15.6885C31.6284 15.6885 30.7842 16.5308 30.7842 17.5669C30.7842 18.6025 31.6284 19.4453 32.6665 19.4453C33.7041 19.4453 34.5488 18.6025 34.5488 17.5669Z" fill="#188B22"/>
<path d="M34.0869 48.8536C34.7207 48.126 49.6069 30.9063 49.6069 19.0694C49.6069 -5.33882 15.7261 -5.63667 15.7261 19.0694C15.7261 30.9063 30.6123 48.126 31.2461 48.8536C31.9966 49.7144 33.3379 49.7134 34.0869 48.8536ZM27.0195 17.5669C27.0195 14.4595 29.5527 11.9317 32.6665 11.9317C35.7798 11.9317 38.313 14.4595 38.313 17.5669C38.313 20.6739 35.7798 23.2017 32.6665 23.2017C29.5527 23.2017 27.0195 20.6739 27.0195 17.5669Z" fill="#188B22"/>
</svg>
