<svg width="56" height="65" viewBox="0 0 56 65" fill="none" xmlns="http://www.w3.org/2000/svg">
<path d="M20.9081 19.1514H27.6683C28.8568 16.6847 27.0578 13.7764 24.2873 13.7764C21.5221 13.7764 19.7147 16.6801 20.9081 19.1514Z" fill="#188B22"/>
<path d="M24.2876 10.0264C29.0643 10.0264 32.647 14.4575 31.6103 19.1514H41.1626V15.0264C41.1626 14.336 40.603 13.7764 39.9126 13.7764H37.3897C37.1022 12.7699 36.7012 11.8114 36.2026 10.9146L37.9877 9.12949C38.4758 8.64137 38.4758 7.84987 37.9877 7.36174L34.4522 3.82624C33.9641 3.33812 33.1726 3.33812 32.6845 3.82624L30.8993 5.61137C30.0026 5.11262 29.0441 4.71174 28.0376 4.42412V1.90137C28.0376 1.21099 27.478 0.651367 26.7876 0.651367H21.7876C21.0972 0.651367 20.5376 1.21099 20.5376 1.90137V4.42424C19.5311 4.71174 18.5726 5.11274 17.6758 5.61149L15.8907 3.82624C15.4026 3.33812 14.6111 3.33812 14.123 3.82624L10.5875 7.36174C10.0993 7.84987 10.0993 8.64137 10.5875 9.12949L12.3727 10.9146C11.8741 11.8114 11.4731 12.7699 11.1856 13.7764H8.6626C7.97222 13.7764 7.4126 14.336 7.4126 15.0264V19.1514H16.9691C15.9266 14.4452 19.521 10.0264 24.2876 10.0264Z" fill="#188B22"/>
<path d="M55.5864 40.3589L48.2277 29.3551C48.1023 27.1289 47.6552 24.9689 46.8941 22.9014H2.13594C-2.08656 34.3649 3.68719 47.5847 15.7651 51.8701V62.7764C15.7651 63.8114 16.6038 64.6514 17.6401 64.6514H39.0151C40.0501 64.6514 40.8901 63.8114 40.8901 62.7764V53.1514H46.3901C47.4251 53.1514 48.2651 52.3114 48.2651 51.2764V43.2764H54.0276C55.5227 43.2764 56.4189 41.6039 55.5864 40.3589Z" fill="#188B22"/>
</svg>
