<svg width="30" height="30" viewBox="0 0 30 30" fill="none" xmlns="http://www.w3.org/2000/svg">
<path d="M12 1V5L10 6L7 3L3 7L6 10L5 12H1V18H5L6 20L3 23L7 27L10 24L12 25V29H18V25L20 24L23 27L27 23L24 20L25 18H29V12H25L24 10L27 7L23 3L20 6L18 5V1H12Z" stroke="white" stroke-width="2" stroke-linecap="round" stroke-linejoin="round"/>
<path d="M15 19C17.2091 19 19 17.2091 19 15C19 12.7909 17.2091 11 15 11C12.7909 11 11 12.7909 11 15C11 17.2091 12.7909 19 15 19Z" stroke="white" stroke-width="2" stroke-linecap="round" stroke-linejoin="round"/>
</svg>
