<svg width="64" height="65" viewBox="0 0 64 65" fill="none" xmlns="http://www.w3.org/2000/svg">
<path d="M63.1193 19.812L32.9943 0.937023C32.3864 0.556148 31.6136 0.556148 31.0058 0.937023L0.88075 19.812C0.33325 20.1544 0 20.755 0 21.4014C0 22.0478 0.33325 22.6484 0.88075 22.9908L31.0058 41.7408C31.3098 41.9311 31.6558 42.0264 32 42.0264C32.3442 42.0264 32.6903 41.9311 32.9943 41.7408L63.1193 22.9908C63.6668 22.6484 64 22.0478 64 21.4014C64 20.755 63.6668 20.1544 63.1193 19.812Z" fill="#188B22"/>
<path d="M63.1193 42.3119L60.1999 40.4873L32.9943 57.4127C32.6903 57.6031 32.3442 57.6983 32 57.6983C31.6558 57.6983 31.3098 57.6031 31.0058 57.4127L3.80012 40.4873L0.88075 42.3119C0.33325 42.6543 0 43.2549 0 43.9013C0 44.5477 0.33325 45.1483 0.88075 45.4907L31.0058 64.3657C31.3098 64.5561 31.6558 64.6513 32 64.6513C32.3442 64.6513 32.6903 64.5561 32.9943 64.3657L63.1193 45.4907C63.6668 45.1483 64 44.5477 64 43.9013C64 43.2549 63.6668 42.6543 63.1193 42.3119Z" fill="#188B22"/>
<path d="M63.1193 31.0619L60.1999 29.2373L32.9943 46.1627C32.6903 46.3531 32.3442 46.4483 32 46.4483C31.6558 46.4483 31.3098 46.3531 31.0058 46.1627L3.80012 29.2373L0.88075 31.0619C0.33325 31.4043 0 32.0049 0 32.6513C0 33.2977 0.33325 33.8983 0.88075 34.2407L31.0058 52.9907C31.3098 53.1811 31.6558 53.2763 32 53.2763C32.3442 53.2763 32.6903 53.1811 32.9943 52.9907L63.1193 34.2407C63.6668 33.8983 64 33.2977 64 32.6513C64 32.0049 63.6668 31.4043 63.1193 31.0619Z" fill="#188B22"/>
</svg>
